PathFileType	4	(X/Y/Z)	C:/Users/opensim2020/Desktop/walking_exp_matlab/subject06_walking15_straight_01.trc																																																																																																																																											
DataRate	CameraRate	NumFrames	NumMarkers	Units	OrigDataRate	OrigDataStartFrame	OrigNumFrames																																																																																																																																							
100	100	5	47	mm	100	805	232																																																																																																																																							
Frame#	Time	LFHD			RFHD			LBHD			RBHD			C7			T10			CLAV			STRN			RBAK			LSHO			LUPA			LELB			LFRM			LWRA			LWRB			LFIN			RSHO			RUPA			RELB			RFRM			RWRA			RWRB			RFIN			LASI			RASI			LPSI			RPSI			LTHI			LKNE			LTIB			LANK			LHEE			LTOE			RTHI			RKNE			RTIB			RANK			RHEE			RTOE			*39			*40			*41			*42			*43			*44			*45			*46		
		X1	Y1	Z1	X2	Y2	Z2	X3	Y3	Z3	X4	Y4	Z4	X5	Y5	Z5	X6	Y6	Z6	X7	Y7	Z7	X8	Y8	Z8	X9	Y9	Z9	X10	Y10	Z10	X11	Y11	Z11	X12	Y12	Z12	X13	Y13	Z13	X14	Y14	Z14	X15	Y15	Z15	X16	Y16	Z16	X17	Y17	Z17	X18	Y18	Z18	X19	Y19	Z19	X20	Y20	Z20	X21	Y21	Z21	X22	Y22	Z22	X23	Y23	Z23	X24	Y24	Z24	X25	Y25	Z25	X26	Y26	Z26	X27	Y27	Z27	X28	Y28	Z28	X29	Y29	Z29	X30	Y30	Z30	X31	Y31	Z31	X32	Y32	Z32	X33	Y33	Z33	X34	Y34	Z34	X35	Y35	Z35	X36	Y36	Z36	X37	Y37	Z37	X38	Y38	Z38	X39	Y39	Z39	X40	Y40	Z40	X41	Y41	Z41	X42	Y42	Z42	X43	Y43	Z43	X44	Y44	Z44	X45	Y45	Z45	X46	Y46	Z46	X47	Y47	Z47
																																																																																																																																														
30	0.29	-884.1593	1644.53638	1365.47046	-878.34039	1635.82043	1496.74609	-1017.76392	1589.42969	1371.30896	-1010.18854	1585.69873	1500.48157	-1016.32703	1435.57813	1423.40955	-1066.44604	1108.18445	1422.64587	-906.96838	1354.32849	1424.12537	-876.30396	1179.06689	1411.7334	-1098.24438	1266.70142	1494.75	-959.38922	1391.53503	1261.47681	-943.88068	1191.1687	1184.82422	-928.95337	1079.01099	1170.36133	-837.33405	960.09064	1160.9812	-727.29077	904.74158	1212.88623	-773.2265	861.29486	1180.94336	-692.68292	820.24927	1185.80103	-954.75629	1382.58484	1585.84644	-1031.26904	1193.76306	1664.75024	-1049.84814	1074.26001	1678.62378	-1073.14966	957.13544	1701.67554	-1058.04236	803.12762	1687.84595	-1115.35583	825.50177	1716.59802	-1108.07947	741.70557	1726.99011	-899.16864	939.1322	1312.83533	-883.55371	957.92474	1532.08582	-1052.4585	969.35962	1350.08093	-1039.44214	981.45343	1517.69202	-1013.57507	627.34558	1273.96558	-1051.8667	467.28198	1299.50793	-1203.62451	256.72678	1307.98743	-1294.84033	110.88244	1350.52551	-1340.04053	113.84202	1394.37048	-1171.98059	39.41584	1350.85571	-866.98004	637.45483	1602.08826	-826.57324	521.66479	1572.6217	-811.67273	256.27701	1580.95117	-786.32483	72.21432	1538.69958	-820.55066	46.88238	1492.76099	-632.42383	45.00364	1539.79419	-982.52509	1683.59131	1427.92407	NaN	NaN	NaN	NaN	NaN	NaN	NaN	NaN	NaN	NaN	NaN	NaN	NaN	NaN	NaN	NaN	NaN	NaN	NaN	NaN	NaN
31	0.3	-875.72491	1646.38965	1366.92334	-870.20245	1637.71326	1498.22778	-1009.18939	1590.87305	1372.72314	-1001.71295	1587.21265	1501.89001	-1007.51007	1437.05396	1424.7052	-1057.08582	1109.87317	1423.36121	-897.7442	1356.17578	1425.60583	-866.81995	1180.95007	1413.2406	-1088.97485	1268.35901	1495.91602	-950.0957	1393.34192	1262.86267	-935.80292	1192.76758	1186.49768	-921.08411	1080.59949	1172.40051	-831.19958	960.02917	1162.37134	-722.29608	902.45178	1213.48267	-769.10852	859.81305	1181.72314	-689.37689	817.38855	1185.81372	-945.76245	1384.44617	1587.07275	-1021.12122	1195.09106	1666.0625	-1038.87915	1075.56726	1679.87158	-1061.27625	958.25592	1702.92517	-1045.19397	804.24744	1688.79272	-1102.49915	826.42975	1718.05261	-1094.74512	742.51709	1728.14539	-888.6073	940.44867	1314.67822	-873.63232	961.17572	1533.73669	-1041.83777	970.73834	1350.30627	-1029.5105	983.63983	1517.89673	-1002.63422	627.98218	1275.45947	-1039.65833	467.78549	1301.38647	-1196.10571	260.75806	1309.20947	-1290.80286	117.0888	1350.89221	-1335.51355	121.35275	1394.77698	-1171.13916	39.89965	1351.24805	-857.60809	640.11047	1603.05566	-818.09778	523.51324	1573.50281	-807.07855	257.46167	1581.29846	-785.36176	72.52065	1538.92004	-820.36377	47.0656	1493.38831	-631.71674	44.45288	1538.51794	-974.27905	1685.17322	1429.29553	NaN	NaN	NaN	NaN	NaN	NaN	NaN	NaN	NaN	NaN	NaN	NaN	NaN	NaN	NaN	NaN	NaN	NaN	NaN	NaN	NaN
32	0.31	-867.29865	1648.44702	1368.32581	-861.66388	1639.6416	1499.61487	-1000.60577	1592.65466	1374.05115	-993.16016	1588.99023	1503.21875	-998.65149	1438.75208	1425.97546	-1047.56848	1111.79211	1424.19177	-888.67493	1358.19031	1426.92297	-857.17566	1183.12891	1414.72852	-1079.65747	1270.26331	1496.78687	-940.8277	1395.40662	1264.24451	-927.29047	1194.63354	1188.24841	-913.34717	1082.37402	1174.53076	-825.5929	960.21814	1163.7771	-717.58789	900.26135	1213.89783	-765.80774	858.60315	1182.54797	-686.80988	814.633	1185.83118	-936.9657	1386.6012	1588.2627	-1011.05615	1196.7251	1667.33142	-1027.80371	1077.07922	1681.11084	-1049.2439	959.62323	1704.22168	-1031.91699	805.72479	1689.80994	-1089.13049	827.36554	1719.37183	-1080.73889	743.49207	1729.31812	-878.03113	942.11237	1316.66882	-864.49109	964.04175	1535.74756	-1031.32239	972.39313	1350.81433	-1019.70599	985.83716	1518.36072	-991.09613	628.82813	1277.39587	-1026.54602	468.25015	1303.17932	-1187.84949	265.1235	1310.677	-1285.87	123.80411	1351.7262	-1330.0343	129.54556	1395.80823	-1170.02405	40.42815	1351.57922	-848.53369	642.43073	1603.95068	-810.78394	524.63263	1573.65735	-802.88818	258.30359	1581.60852	-784.46442	72.68398	1538.94067	-820.23389	47.18535	1493.66882	-631.17786	43.80767	1537.76282	-965.92926	1686.99341	1430.65662	NaN	NaN	NaN	NaN	NaN	NaN	NaN	NaN	NaN	NaN	NaN	NaN	NaN	NaN	NaN	NaN	NaN	NaN	NaN	NaN	NaN
33	0.32	-858.69153	1650.61633	1369.72681	-853.1181	1641.69299	1500.96924	-991.90967	1594.6394	1375.25854	-984.61017	1590.92871	1504.44995	-989.69342	1440.59888	1427.13953	-1037.97205	1113.84363	1425.23816	-879.43512	1360.4137	1428.2688	-847.62616	1185.44702	1416.12317	-1070.28821	1272.34058	1497.62891	-931.61487	1397.58057	1265.70276	-918.46185	1196.78845	1189.95227	-905.77917	1084.48083	1176.66394	-820.33966	960.38208	1165.11658	-713.6676	897.68237	1214.58044	-762.69806	857.43134	1183.22461	-684.6637	811.9295	1185.66919	-928.09564	1388.89124	1589.40381	-1000.99176	1198.60791	1668.672	-1016.84454	1078.85376	1682.43677	-1037.84412	961.50098	1705.28003	-1018.12854	807.39679	1690.87866	-1075.36194	828.52014	1720.67908	-1066.17175	744.72272	1730.50671	-867.42603	944.12494	1318.92896	-855.42139	966.71899	1537.59827	-1020.99878	974.32941	1351.67419	-1010.03107	987.96075	1519.16675	-979.34772	629.79559	1279.27087	-1012.88062	468.82965	1304.65417	-1178.74121	269.76886	1312.45264	-1279.96252	130.8459	1353.18628	-1323.26672	138.26134	1397.69531	-1168.66968	40.84698	1352.11487	-840.5199	643.71277	1604.79163	-804.80518	525.02277	1573.67578	-799.08905	258.62991	1581.74109	-783.91071	72.7861	1538.72888	-820.39459	47.42214	1493.77234	-630.89172	43.38283	1537.33289	-957.42059	1689.00122	1431.98767	NaN	NaN	NaN	NaN	NaN	NaN	NaN	NaN	NaN	NaN	NaN	NaN	NaN	NaN	NaN	NaN	NaN	NaN	NaN	NaN	NaN
34	0.33	-850.0199	1652.86279	1371.09167	-844.75592	1643.95459	1502.3252	-983.22473	1596.79346	1376.42004	-976.05371	1592.96387	1505.59375	-980.82129	1442.55835	1428.27771	-1028.43408	1115.96545	1426.4386	-870.29016	1362.74097	1429.52356	-837.96967	1187.83167	1417.61194	-1060.94604	1274.42224	1498.5094	-922.41113	1399.83374	1267.06787	-909.45197	1199.02283	1191.69727	-898.36395	1086.44946	1178.79651	-815.8808	960.64789	1166.18616	-709.63892	895.51428	1214.46655	-760.10175	856.18243	1183.70203	-682.88013	809.09601	1185.60876	-919.27423	1391.37292	1590.44971	-990.22498	1200.44836	1670.18274	-1005.85492	1080.71936	1683.77637	-1025.40552	963.09943	1706.52869	-1003.88239	809.28833	1691.91248	-1061.31396	829.76599	1721.90833	-1051.13782	746.0921	1731.78101	-857.58691	946.2135	1320.82861	-845.81964	969.41284	1539.70752	-1010.88611	976.32104	1352.92566	-1000.27612	989.96155	1520.39014	-967.28308	630.84906	1280.97974	-998.34216	469.42712	1305.74573	-1168.57654	274.50244	1314.49097	-1273.01575	138.33659	1355.34424	-1314.98743	147.33258	1400.51306	-1166.9729	41.46134	1353.12939	-833.94354	644.04034	1605.56726	-799.36993	525.4801	1574.72742	-795.90875	258.52216	1581.77942	-783.42657	72.79932	1538.43091	-820.46863	47.51316	1493.7301	-630.70532	43.15345	1536.81189	-948.86932	1691.14563	1433.27966	NaN	NaN	NaN	NaN	NaN	NaN	NaN	NaN	NaN	NaN	NaN	NaN	NaN	NaN	NaN	NaN	NaN	NaN	NaN	NaN	NaN
